<?xml version="1.0" encoding="UTF-8" standalone="no"?><!DOCTYPE svg PUBLIC "-//W3C//DTD SVG 1.1//EN" "http://www.w3.org/Graphics/SVG/1.1/DTD/svg11.dtd"><svg width="100%" height="100%" viewBox="0 0 985 163" version="1.1" xmlns="http://www.w3.org/2000/svg" xmlns:xlink="http://www.w3.org/1999/xlink" xml:space="preserve" xmlns:serif="http://www.serif.com/" style="fill-rule:evenodd;clip-rule:evenodd;stroke-linejoin:round;stroke-miterlimit:1.41421;"><g><path d="M105.321,160.393l-105.321,0l0,-153.643l105.321,0l0,30.75l-74.571,0l0,30.75l50.464,0l0,30.75l-50.464,0l0,30.643l74.571,0l0,30.75Z" style="fill:url(#_Linear1);fill-rule:nonzero;"/><path d="M153,160.393l-29.25,0l0,-114.75l7.071,0l9.643,11.143c4.715,-4.286 10.054,-7.59 16.018,-9.911c5.964,-2.321 12.197,-3.482 18.697,-3.482c7,0 13.607,1.339 19.821,4.018c6.214,2.678 11.643,6.357 16.286,11.035c4.643,4.679 8.303,10.143 10.982,16.393c2.678,6.25 4.018,12.911 4.018,19.982l0,65.572l-29.25,0l0,-65.572c0,-3 -0.572,-5.839 -1.715,-8.517c-1.142,-2.679 -2.714,-5.018 -4.714,-7.018c-2,-2 -4.321,-3.572 -6.964,-4.715c-2.643,-1.142 -5.464,-1.714 -8.464,-1.714c-3.072,0 -5.965,0.572 -8.679,1.714c-2.714,1.143 -5.071,2.715 -7.071,4.715c-2,2 -3.572,4.339 -4.715,7.018c-1.143,2.678 -1.714,5.517 -1.714,8.517l0,65.572Z" style="fill:url(#_Linear2);fill-rule:nonzero;"/><path d="M303.107,160.393c-7.071,0 -13.714,-1.339 -19.928,-4.018c-6.215,-2.679 -11.661,-6.357 -16.34,-11.036c-4.678,-4.678 -8.357,-10.125 -11.035,-16.339c-2.679,-6.214 -4.018,-12.857 -4.018,-19.929l0,-34.071l-14.25,0l0,-29.143l14.25,0l0,-45.857l29.143,0l0,45.857l44.357,0l0,29.143l-44.357,0l0,34.071c0,3.072 0.571,5.947 1.714,8.625c1.143,2.679 2.714,5.018 4.714,7.018c2,2 4.357,3.59 7.072,4.768c2.714,1.179 5.607,1.768 8.678,1.768l22.179,0l0,29.143l-22.179,0Z" style="fill:url(#_Linear3);fill-rule:nonzero;"/><path d="M370.929,160.393l-29.25,0l0,-114.75l7.071,0l9.643,13.607c4.714,-4.286 10.071,-7.589 16.071,-9.911c6,-2.321 12.215,-3.482 18.643,-3.482l25.822,0l0,29.143l-25.822,0c-3.071,0 -5.964,0.571 -8.678,1.714c-2.715,1.143 -5.072,2.715 -7.072,4.715c-2,2 -3.571,4.357 -4.714,7.071c-1.143,2.714 -1.714,5.607 -1.714,8.679l0,63.214Z" style="fill:url(#_Linear4);fill-rule:nonzero;"/><path d="M476.036,132.321c1.143,0.358 2.285,0.59 3.428,0.697c1.143,0.107 2.286,0.161 3.429,0.161c2.857,0 5.607,-0.393 8.25,-1.179c2.643,-0.786 5.125,-1.911 7.446,-3.375c2.322,-1.464 4.393,-3.25 6.215,-5.357c1.821,-2.107 3.303,-4.447 4.446,-7.018l21.429,21.536c-2.715,3.857 -5.84,7.321 -9.375,10.393c-3.536,3.071 -7.358,5.678 -11.465,7.821c-4.107,2.143 -8.428,3.768 -12.964,4.875c-4.536,1.107 -9.196,1.661 -13.982,1.661c-8.072,0 -15.661,-1.5 -22.768,-4.5c-7.107,-3 -13.321,-7.179 -18.643,-12.536c-5.321,-5.357 -9.518,-11.732 -12.589,-19.125c-3.072,-7.393 -4.607,-15.518 -4.607,-24.375c0,-9.071 1.535,-17.357 4.607,-24.857c3.071,-7.5 7.268,-13.893 12.589,-19.179c5.322,-5.285 11.536,-9.393 18.643,-12.321c7.107,-2.929 14.696,-4.393 22.768,-4.393c4.786,0 9.464,0.571 14.036,1.714c4.571,1.143 8.91,2.786 13.017,4.929c4.108,2.143 7.947,4.768 11.518,7.875c3.572,3.107 6.715,6.589 9.429,10.446l-54.857,66.107Zm15,-60.321c-1.357,-0.5 -2.697,-0.821 -4.018,-0.964c-1.322,-0.143 -2.697,-0.215 -4.125,-0.215c-4,0 -7.768,0.733 -11.304,2.197c-3.535,1.464 -6.607,3.553 -9.214,6.268c-2.607,2.714 -4.661,5.982 -6.161,9.803c-1.5,3.822 -2.25,8.125 -2.25,12.911c0,1.071 0.054,2.286 0.161,3.643c0.107,1.357 0.286,2.732 0.536,4.125c0.25,1.393 0.553,2.732 0.91,4.018c0.358,1.285 0.822,2.428 1.393,3.428l34.072,-45.214Z" style="fill:url(#_Linear5);fill-rule:nonzero;"/><path d="M539.679,52.821c0,-6.357 1.214,-12.321 3.642,-17.892c2.429,-5.572 5.733,-10.447 9.911,-14.625c4.179,-4.179 9.054,-7.483 14.625,-9.911c5.572,-2.429 11.536,-3.643 17.893,-3.643l70.5,0l0,30.75l-70.5,0c-2.143,0 -4.143,0.393 -6,1.179c-1.857,0.785 -3.482,1.875 -4.875,3.267c-1.393,1.393 -2.482,3.018 -3.268,4.875c-0.786,1.858 -1.178,3.858 -1.178,6c0,2.143 0.392,4.161 1.178,6.054c0.786,1.893 1.875,3.536 3.268,4.929c1.393,1.392 3.018,2.482 4.875,3.267c1.857,0.786 3.857,1.179 6,1.179l30.75,0c6.357,0 12.339,1.196 17.946,3.589c5.608,2.393 10.5,5.679 14.679,9.857c4.179,4.179 7.464,9.072 9.857,14.679c2.393,5.607 3.589,11.589 3.589,17.946c0,6.358 -1.196,12.322 -3.589,17.893c-2.393,5.572 -5.678,10.447 -9.857,14.625c-4.179,4.179 -9.071,7.482 -14.679,9.911c-5.607,2.429 -11.589,3.643 -17.946,3.643l-68.25,0l0,-30.75l68.25,0c2.143,0 4.143,-0.393 6,-1.179c1.857,-0.785 3.482,-1.875 4.875,-3.268c1.393,-1.392 2.482,-3.017 3.268,-4.875c0.786,-1.857 1.178,-3.857 1.178,-6c0,-2.142 -0.392,-4.142 -1.178,-6c-0.786,-1.857 -1.875,-3.482 -3.268,-4.875c-1.393,-1.392 -3.018,-2.482 -4.875,-3.267c-1.857,-0.786 -3.857,-1.179 -6,-1.179l-30.75,0c-6.357,0 -12.321,-1.214 -17.893,-3.643c-5.571,-2.428 -10.446,-5.732 -14.625,-9.911c-4.178,-4.178 -7.482,-9.071 -9.911,-14.678c-2.428,-5.607 -3.642,-11.589 -3.642,-17.947Z" style="fill:url(#_Linear6);fill-rule:nonzero;"/><path d="M735.214,160.393c-7.071,0 -13.714,-1.339 -19.928,-4.018c-6.215,-2.679 -11.661,-6.357 -16.34,-11.036c-4.678,-4.678 -8.357,-10.125 -11.035,-16.339c-2.679,-6.214 -4.018,-12.857 -4.018,-19.929l0,-34.071l-14.25,0l0,-29.143l14.25,0l0,-45.857l29.143,0l0,45.857l44.357,0l0,29.143l-44.357,0l0,34.071c0,3.072 0.571,5.947 1.714,8.625c1.143,2.679 2.714,5.018 4.714,7.018c2,2 4.357,3.59 7.072,4.768c2.714,1.179 5.607,1.768 8.678,1.768l22.179,0l0,29.143l-22.179,0Z" style="fill:url(#_Linear7);fill-rule:nonzero;"/><path d="M884.893,160.393l-7.072,0l-11.357,-15.75c-2.785,2.5 -5.732,4.839 -8.839,7.018c-3.107,2.178 -6.375,4.071 -9.804,5.678c-3.428,1.607 -6.946,2.875 -10.553,3.804c-3.607,0.928 -7.268,1.393 -10.982,1.393c-8.072,0 -15.661,-1.357 -22.768,-4.072c-7.107,-2.714 -13.322,-6.66 -18.643,-11.839c-5.321,-5.179 -9.518,-11.518 -12.589,-19.018c-3.072,-7.5 -4.607,-16.036 -4.607,-25.607c0,-8.929 1.535,-17.125 4.607,-24.589c3.071,-7.465 7.268,-13.875 12.589,-19.232c5.321,-5.358 11.536,-9.518 18.643,-12.483c7.107,-2.964 14.696,-4.446 22.768,-4.446c3.714,0 7.393,0.464 11.035,1.393c3.643,0.928 7.179,2.214 10.608,3.857c3.428,1.643 6.696,3.571 9.803,5.786c3.107,2.214 6.018,4.607 8.732,7.178l11.357,-13.607l7.072,0l0,114.536Zm-29.464,-58.393c0,-4 -0.768,-7.875 -2.304,-11.625c-1.536,-3.75 -3.625,-7.071 -6.268,-9.964c-2.643,-2.893 -5.732,-5.215 -9.268,-6.965c-3.535,-1.75 -7.303,-2.625 -11.303,-2.625c-4,0 -7.768,0.679 -11.304,2.036c-3.536,1.357 -6.607,3.357 -9.214,6c-2.607,2.643 -4.661,5.911 -6.161,9.804c-1.5,3.893 -2.25,8.339 -2.25,13.339c0,5 0.75,9.446 2.25,13.339c1.5,3.893 3.554,7.161 6.161,9.804c2.607,2.643 5.678,4.643 9.214,6c3.536,1.357 7.304,2.036 11.304,2.036c4,0 7.768,-0.875 11.303,-2.625c3.536,-1.75 6.625,-4.072 9.268,-6.965c2.643,-2.893 4.732,-6.214 6.268,-9.964c1.536,-3.75 2.304,-7.625 2.304,-11.625Z" style="fill:url(#_Linear8);fill-rule:nonzero;"/><path d="M936.429,160.393l-29.25,0l0,-114.75l7.071,0l9.643,13.607c4.714,-4.286 10.071,-7.589 16.071,-9.911c6,-2.321 12.215,-3.482 18.643,-3.482l25.822,0l0,29.143l-25.822,0c-3.071,0 -5.964,0.571 -8.678,1.714c-2.715,1.143 -5.072,2.715 -7.072,4.715c-2,2 -3.571,4.357 -4.714,7.071c-1.143,2.714 -1.714,5.607 -1.714,8.679l0,63.214Z" style="fill:url(#_Linear9);fill-rule:nonzero;"/></g><defs><linearGradient id="_Linear1" x1="0" y1="0" x2="1" y2="0" gradientUnits="userSpaceOnUse" gradientTransform="matrix(984.429,0,0,162.536,-7.10543e-15,81.2679)"><stop offset="0" style="stop-color:#2bd563;stop-opacity:1"/><stop offset="1" style="stop-color:#0082d5;stop-opacity:1"/></linearGradient><linearGradient id="_Linear2" x1="0" y1="0" x2="1" y2="0" gradientUnits="userSpaceOnUse" gradientTransform="matrix(984.429,0,0,162.536,-7.10543e-15,81.2679)"><stop offset="0" style="stop-color:#2bd563;stop-opacity:1"/><stop offset="1" style="stop-color:#0082d5;stop-opacity:1"/></linearGradient><linearGradient id="_Linear3" x1="0" y1="0" x2="1" y2="0" gradientUnits="userSpaceOnUse" gradientTransform="matrix(984.429,0,0,162.536,-7.10543e-15,81.2679)"><stop offset="0" style="stop-color:#2bd563;stop-opacity:1"/><stop offset="1" style="stop-color:#0082d5;stop-opacity:1"/></linearGradient><linearGradient id="_Linear4" x1="0" y1="0" x2="1" y2="0" gradientUnits="userSpaceOnUse" gradientTransform="matrix(984.429,0,0,162.536,-7.10543e-15,81.2679)"><stop offset="0" style="stop-color:#2bd563;stop-opacity:1"/><stop offset="1" style="stop-color:#0082d5;stop-opacity:1"/></linearGradient><linearGradient id="_Linear5" x1="0" y1="0" x2="1" y2="0" gradientUnits="userSpaceOnUse" gradientTransform="matrix(984.429,0,0,162.536,-7.10543e-15,81.2679)"><stop offset="0" style="stop-color:#2bd563;stop-opacity:1"/><stop offset="1" style="stop-color:#0082d5;stop-opacity:1"/></linearGradient><linearGradient id="_Linear6" x1="0" y1="0" x2="1" y2="0" gradientUnits="userSpaceOnUse" gradientTransform="matrix(984.429,0,0,162.536,-7.10543e-15,81.2679)"><stop offset="0" style="stop-color:#2bd563;stop-opacity:1"/><stop offset="1" style="stop-color:#0082d5;stop-opacity:1"/></linearGradient><linearGradient id="_Linear7" x1="0" y1="0" x2="1" y2="0" gradientUnits="userSpaceOnUse" gradientTransform="matrix(984.429,0,0,162.536,-7.10543e-15,81.2679)"><stop offset="0" style="stop-color:#2bd563;stop-opacity:1"/><stop offset="1" style="stop-color:#0082d5;stop-opacity:1"/></linearGradient><linearGradient id="_Linear8" x1="0" y1="0" x2="1" y2="0" gradientUnits="userSpaceOnUse" gradientTransform="matrix(984.429,0,0,162.536,-7.10543e-15,81.2679)"><stop offset="0" style="stop-color:#2bd563;stop-opacity:1"/><stop offset="1" style="stop-color:#0082d5;stop-opacity:1"/></linearGradient><linearGradient id="_Linear9" x1="0" y1="0" x2="1" y2="0" gradientUnits="userSpaceOnUse" gradientTransform="matrix(984.429,0,0,162.536,-7.10543e-15,81.2679)"><stop offset="0" style="stop-color:#2bd563;stop-opacity:1"/><stop offset="1" style="stop-color:#0082d5;stop-opacity:1"/></linearGradient></defs></svg>