<?xml version="1.0" encoding="UTF-8" standalone="no"?><!DOCTYPE svg PUBLIC "-//W3C//DTD SVG 1.1//EN" "http://www.w3.org/Graphics/SVG/1.1/DTD/svg11.dtd"><svg width="100%" height="100%" viewBox="0 0 375 375" version="1.1" xmlns="http://www.w3.org/2000/svg" xmlns:xlink="http://www.w3.org/1999/xlink" xml:space="preserve" xmlns:serif="http://www.serif.com/" style="fill-rule:evenodd;clip-rule:evenodd;stroke-linejoin:round;stroke-miterlimit:1.41421;"><g><path d="M187.5,17.302l130.45,130.45l-130.45,130.45l-130.45,-130.45l130.45,-130.45Z" style="fill:#374355;"/><path d="M171.065,108.798l0,51.999l25.999,0c3.563,0 6.915,-0.68 10.055,-2.039c3.141,-1.358 5.889,-3.215 8.244,-5.571c2.356,-2.355 4.213,-5.118 5.571,-8.289c1.359,-3.17 2.039,-6.537 2.039,-10.101c0,-3.563 -0.68,-6.93 -2.039,-10.1c-1.358,-3.171 -3.215,-5.934 -5.571,-8.289c-2.355,-2.356 -5.103,-4.213 -8.244,-5.572c-3.14,-1.359 -6.492,-2.038 -10.055,-2.038l-25.999,0Zm0,103.907l-26,0l0,-129.906l51.999,0c4.771,0 9.361,0.619 13.77,1.857c4.408,1.238 8.53,2.989 12.365,5.254c3.835,2.265 7.338,4.982 10.509,8.153c3.17,3.171 5.888,6.689 8.153,10.554c2.265,3.865 4.016,8.002 5.254,12.411c1.238,4.408 1.857,8.998 1.857,13.769c0,7.127 -1.359,13.846 -4.076,20.157c-2.718,6.311 -6.432,11.822 -11.143,16.532c-4.711,4.711 -10.222,8.425 -16.533,11.143c-6.311,2.718 -13.03,4.077 -20.156,4.077l-25.999,0l0,25.999Z" style="fill:url(#_Linear1);fill-rule:nonzero;"/></g><g><path d="M50.813,302.995l-0.001,26.906l13.454,0c1.843,0 3.578,-0.351 5.203,-1.054c1.625,-0.704 3.047,-1.665 4.265,-2.883c1.219,-1.219 2.18,-2.649 2.883,-4.289c0.703,-1.641 1.055,-3.383 1.055,-5.227c0,-1.844 -0.352,-3.586 -1.055,-5.226c-0.703,-1.641 -1.664,-3.071 -2.883,-4.29c-1.218,-1.218 -2.64,-2.179 -4.265,-2.882c-1.625,-0.703 -3.36,-1.055 -5.203,-1.055l-13.454,0Zm0,53.766l-13.453,0l0,-67.219l26.907,0c2.468,0 4.843,0.32 7.125,0.961c2.281,0.64 4.414,1.547 6.398,2.719c1.984,1.171 3.797,2.578 5.438,4.218c1.64,1.641 3.046,3.461 4.218,5.461c1.172,2 2.078,4.141 2.719,6.422c0.641,2.281 0.961,4.656 0.961,7.125c0,3.688 -0.703,7.164 -2.109,10.43c-1.407,3.265 -3.329,6.117 -5.766,8.554c-2.438,2.438 -5.289,4.36 -8.555,5.766c-3.265,1.406 -6.742,2.109 -10.429,2.109l-13.453,0l0,13.454Z" style="fill:url(#_Linear2);fill-rule:nonzero;"/><path d="M146.156,331.214c0,3.75 -0.672,7.242 -2.015,10.476c-1.344,3.235 -3.172,6.032 -5.485,8.391c-2.312,2.359 -5.023,4.219 -8.133,5.578c-3.109,1.359 -6.445,2.039 -10.007,2.039c-3.532,0 -6.852,-0.68 -9.961,-2.039c-3.11,-1.359 -5.828,-3.219 -8.157,-5.578c-2.328,-2.359 -4.164,-5.156 -5.507,-8.391c-1.344,-3.234 -2.016,-6.726 -2.016,-10.476c0,-3.813 0.672,-7.344 2.016,-10.594c1.343,-3.25 3.179,-6.055 5.507,-8.414c2.329,-2.359 5.047,-4.211 8.157,-5.555c3.109,-1.344 6.429,-2.015 9.961,-2.015c3.562,0 6.898,0.632 10.007,1.898c3.11,1.266 5.821,3.063 8.133,5.391c2.313,2.328 4.141,5.125 5.485,8.39c1.343,3.266 2.015,6.899 2.015,10.899Zm-12.89,0c0,-2.063 -0.336,-3.93 -1.008,-5.602c-0.672,-1.672 -1.586,-3.109 -2.742,-4.312c-1.157,-1.203 -2.508,-2.125 -4.055,-2.766c-1.547,-0.641 -3.195,-0.961 -4.945,-0.961c-1.75,0 -3.399,0.32 -4.946,0.961c-1.547,0.641 -2.89,1.563 -4.031,2.766c-1.141,1.203 -2.039,2.64 -2.695,4.312c-0.657,1.672 -0.985,3.539 -0.985,5.602c0,1.937 0.328,3.734 0.985,5.39c0.656,1.657 1.554,3.094 2.695,4.313c1.141,1.219 2.484,2.18 4.031,2.883c1.547,0.703 3.196,1.054 4.946,1.054c1.75,0 3.398,-0.328 4.945,-0.984c1.547,-0.656 2.898,-1.578 4.055,-2.766c1.156,-1.187 2.07,-2.625 2.742,-4.312c0.672,-1.688 1.008,-3.547 1.008,-5.578Z" style="fill:url(#_Linear3);fill-rule:nonzero;"/><path d="M201.75,356.761l-3.094,0l-4.969,-6.891c-1.218,1.094 -2.507,2.117 -3.867,3.07c-1.359,0.953 -2.789,1.782 -4.289,2.485c-1.5,0.703 -3.039,1.257 -4.617,1.664c-1.578,0.406 -3.18,0.609 -4.805,0.609c-3.531,0 -6.851,-0.664 -9.961,-1.992c-3.109,-1.328 -5.828,-3.172 -8.156,-5.531c-2.328,-2.36 -4.164,-5.157 -5.508,-8.391c-1.343,-3.234 -2.015,-6.758 -2.015,-10.57c0,-3.782 0.672,-7.297 2.015,-10.547c1.344,-3.25 3.18,-6.063 5.508,-8.438c2.328,-2.375 5.047,-4.234 8.156,-5.578c3.11,-1.344 6.43,-2.015 9.961,-2.015c1.125,0 2.289,0.093 3.493,0.281c1.203,0.187 2.375,0.492 3.515,0.914c1.141,0.422 2.211,0.976 3.211,1.664c1,0.687 1.844,1.531 2.531,2.531l0,-23.437l12.891,0l0,70.172Zm-12.891,-25.547c0,-1.75 -0.336,-3.446 -1.007,-5.086c-0.672,-1.641 -1.586,-3.094 -2.743,-4.36c-1.156,-1.265 -2.507,-2.281 -4.054,-3.046c-1.547,-0.766 -3.196,-1.149 -4.946,-1.149c-1.75,0 -3.398,0.313 -4.945,0.938c-1.547,0.625 -2.891,1.523 -4.031,2.695c-1.141,1.172 -2.039,2.601 -2.696,4.289c-0.656,1.687 -0.984,3.594 -0.984,5.719c0,1.843 0.328,3.593 0.984,5.25c0.657,1.656 1.555,3.109 2.696,4.359c1.14,1.25 2.484,2.234 4.031,2.953c1.547,0.719 3.195,1.078 4.945,1.078c1.75,0 3.399,-0.382 4.946,-1.148c1.547,-0.766 2.898,-1.781 4.054,-3.047c1.157,-1.266 2.071,-2.719 2.743,-4.359c0.671,-1.641 1.007,-3.336 1.007,-5.086Z" style="fill:url(#_Linear4);fill-rule:nonzero;"/><path d="M239.063,356.761l-29.251,0l0,-12.75l29.25,0c0.875,0 1.625,-0.313 2.25,-0.938c0.625,-0.625 0.938,-1.375 0.938,-2.25c0,-0.906 -0.313,-1.5 -0.938,-1.781c-0.625,-0.281 -1.375,-0.422 -2.25,-0.422l-13.312,0c-2.219,0 -4.297,-0.422 -6.234,-1.266c-1.938,-0.843 -3.625,-1.992 -5.063,-3.445c-1.437,-1.453 -2.57,-3.148 -3.398,-5.086c-0.828,-1.937 -1.243,-4.016 -1.243,-6.234c0,-2.219 0.415,-4.297 1.243,-6.235c0.828,-1.937 1.961,-3.625 3.398,-5.062c1.438,-1.438 3.125,-2.57 5.063,-3.399c1.937,-0.828 4.015,-1.242 6.234,-1.242l25.922,0l0,12.75l-25.922,0c-0.875,0 -1.625,0.313 -2.25,0.938c-0.625,0.625 -0.938,1.375 -0.938,2.25c0,0.906 0.313,1.679 0.938,2.32c0.625,0.641 1.375,0.961 2.25,0.961l13.313,0c2.187,0 4.25,0.367 6.187,1.102c1.938,0.734 3.625,1.757 5.063,3.07c1.437,1.312 2.578,2.89 3.421,4.734c0.844,1.844 1.266,3.86 1.266,6.047c0,2.219 -0.422,4.289 -1.266,6.211c-0.843,1.922 -1.984,3.609 -3.421,5.063c-1.438,1.453 -3.125,2.593 -5.063,3.421c-1.938,0.829 -4,1.243 -6.188,1.243Z" style="fill:url(#_Linear5);fill-rule:nonzero;"/><path d="M286.969,356.761c-3.094,0 -6,-0.586 -8.719,-1.758c-2.719,-1.172 -5.102,-2.781 -7.148,-4.828c-2.047,-2.047 -3.657,-4.43 -4.829,-7.149c-1.171,-2.719 -1.757,-5.625 -1.757,-8.719l0,-14.906l-6.235,0l0,-12.75l6.235,0l0,-20.062l12.75,0l0,20.062l19.406,0l0,12.75l-19.406,0l0,14.906c0,1.344 0.25,2.602 0.75,3.774c0.5,1.172 1.187,2.195 2.062,3.07c0.875,0.875 1.906,1.571 3.094,2.086c1.187,0.516 2.453,0.774 3.797,0.774l9.703,0l0,12.75l-9.703,0Z" style="fill:url(#_Linear6);fill-rule:nonzero;"/><path d="M316.641,356.761l-12.797,0l0,-50.204l3.094,0l4.218,5.954c2.063,-1.875 4.406,-3.321 7.031,-4.336c2.625,-1.016 5.344,-1.524 8.157,-1.524l11.297,0l0,12.75l-11.297,0c-1.344,0 -2.61,0.25 -3.797,0.75c-1.188,0.5 -2.219,1.188 -3.094,2.063c-0.875,0.875 -1.562,1.906 -2.062,3.093c-0.5,1.188 -0.75,2.454 -0.75,3.797l0,27.657Z" style="fill:url(#_Linear7);fill-rule:nonzero;"/></g><defs><linearGradient id="_Linear1" x1="0" y1="0" x2="1" y2="0" gradientUnits="userSpaceOnUse" gradientTransform="matrix(103.907,0,0,129.906,145.065,147.752)"><stop offset="0" style="stop-color:#2bd563;stop-opacity:1"/><stop offset="1" style="stop-color:#0082d5;stop-opacity:1"/></linearGradient><linearGradient id="_Linear2" x1="0" y1="0" x2="1" y2="0" gradientUnits="userSpaceOnUse" gradientTransform="matrix(289.006,0,0,289.006,41.89,322.143)"><stop offset="0" style="stop-color:#2bd563;stop-opacity:1"/><stop offset="1" style="stop-color:#0082d5;stop-opacity:1"/></linearGradient><linearGradient id="_Linear3" x1="0" y1="0" x2="1" y2="0" gradientUnits="userSpaceOnUse" gradientTransform="matrix(289.006,0,0,289.006,41.89,322.143)"><stop offset="0" style="stop-color:#2bd563;stop-opacity:1"/><stop offset="1" style="stop-color:#0082d5;stop-opacity:1"/></linearGradient><linearGradient id="_Linear4" x1="0" y1="0" x2="1" y2="0" gradientUnits="userSpaceOnUse" gradientTransform="matrix(289.006,0,0,289.006,41.89,322.143)"><stop offset="0" style="stop-color:#2bd563;stop-opacity:1"/><stop offset="1" style="stop-color:#0082d5;stop-opacity:1"/></linearGradient><linearGradient id="_Linear5" x1="0" y1="0" x2="1" y2="0" gradientUnits="userSpaceOnUse" gradientTransform="matrix(289.006,0,0,289.006,41.89,322.143)"><stop offset="0" style="stop-color:#2bd563;stop-opacity:1"/><stop offset="1" style="stop-color:#0082d5;stop-opacity:1"/></linearGradient><linearGradient id="_Linear6" x1="0" y1="0" x2="1" y2="0" gradientUnits="userSpaceOnUse" gradientTransform="matrix(289.006,0,0,289.006,41.89,322.143)"><stop offset="0" style="stop-color:#2bd563;stop-opacity:1"/><stop offset="1" style="stop-color:#0082d5;stop-opacity:1"/></linearGradient><linearGradient id="_Linear7" x1="0" y1="0" x2="1" y2="0" gradientUnits="userSpaceOnUse" gradientTransform="matrix(289.006,0,0,289.006,41.89,322.143)"><stop offset="0" style="stop-color:#2bd563;stop-opacity:1"/><stop offset="1" style="stop-color:#0082d5;stop-opacity:1"/></linearGradient></defs></svg>