<svg xmlns="http://www.w3.org/2000/svg" width="2880" height="1440" opactity="0.5"><path d="M1233,532L1087,-77L435,-51Z" fill="#7ccbbc" stroke="#7ccbbc" stroke-width="1.51"/><path d="M435,-51L39,385L1233,532Z" fill="#83cdbc" stroke="#83cdbc" stroke-width="1.51"/><path d="M39,385L1057,1189L1233,532Z" fill="#63c1c0" stroke="#63c1c0" stroke-width="1.51"/><path d="M39,385L63,1172L1057,1189Z" fill="#76c1be" stroke="#76c1be" stroke-width="1.51"/><path d="M-799,-81L-296,537L39,385Z" fill="#acdcb8" stroke="#acdcb8" stroke-width="1.51"/><path d="M-296,537L63,1172L39,385Z" fill="#93d0bd" stroke="#93d0bd" stroke-width="1.51"/><path d="M2136,223L1997,-87L1233,532Z" fill="#5db7bf" stroke="#5db7bf" stroke-width="1.51"/><path d="M1233,532L1997,-87L1087,-77Z" fill="#6ac3bf" stroke="#6ac3bf" stroke-width="1.51"/><path d="M-296,537L-469,848L63,1172Z" fill="#95cdbc" stroke="#95cdbc" stroke-width="1.51"/><path d="M1897,1298L2136,223L1233,532Z" fill="#3faec3" stroke="#3faec3" stroke-width="1.51"/><path d="M1087,-77L674,-1154L435,-51Z" fill="#a7dcb8" stroke="#a7dcb8" stroke-width="1.51"/><path d="M-623,-539L-799,-81L39,385Z" fill="#c3e6b5" stroke="#c3e6b5" stroke-width="1.51"/><path d="M1997,-87L1386,-957L1087,-77Z" fill="#90cebd" stroke="#90cebd" stroke-width="1.51"/><path d="M341,1872L952,1738L63,1172Z" fill="#6ca2b6" stroke="#6ca2b6" stroke-width="1.51"/><path d="M63,1172L952,1738L1057,1189Z" fill="#5daabc" stroke="#5daabc" stroke-width="1.51"/><path d="M1057,1189L1897,1298L1233,532Z" fill="#3dacc3" stroke="#3dacc3" stroke-width="1.51"/><path d="M1386,-957L674,-1154L1087,-77Z" fill="#aadab9" stroke="#aadab9" stroke-width="1.51"/><path d="M1839,1773L1897,1298L1057,1189Z" fill="#3198be" stroke="#3198be" stroke-width="1.51"/><path d="M-472,2015L341,1872L63,1172Z" fill="#85a6b2" stroke="#85a6b2" stroke-width="1.51"/><path d="M674,-1154L-189,-973L435,-51Z" fill="#c6e8b5" stroke="#c6e8b5" stroke-width="1.51"/><path d="M-296,537L-1139,605L-469,848Z" fill="#a6d7bb" stroke="#a6d7bb" stroke-width="1.51"/><path d="M-623,-539L39,385L435,-51Z" fill="#b6e2b6" stroke="#b6e2b6" stroke-width="1.51"/><path d="M-189,-973L-623,-539L435,-51Z" fill="#d1edb4" stroke="#d1edb4" stroke-width="1.51"/><path d="M1897,1298L2427,1212L2136,223Z" fill="#2c9dc2" stroke="#2c9dc2" stroke-width="1.51"/><path d="M952,1738L1839,1773L1057,1189Z" fill="#4097ba" stroke="#4097ba" stroke-width="1.51"/><path d="M1914,2360L1839,1773L952,1738Z" fill="#3780b3" stroke="#3780b3" stroke-width="1.51"/><path d="M2307,1771L2427,1212L1897,1298Z" fill="#2087bc" stroke="#2087bc" stroke-width="1.51"/><path d="M-469,848L-807,1371L63,1172Z" fill="#96c4bb" stroke="#96c4bb" stroke-width="1.51"/><path d="M-1139,605L-807,1371L-469,848Z" fill="#a3cfbd" stroke="#a3cfbd" stroke-width="1.51"/><path d="M-1427,-735L-1139,605L-799,-81Z" fill="#ceebc0" stroke="#ceebc0" stroke-width="1.51"/><path d="M-799,-81L-1139,605L-296,537Z" fill="#b4dfb9" stroke="#b4dfb9" stroke-width="1.51"/><path d="M-1139,605L-880,1475L-807,1371Z" fill="#a1c8c0" stroke="#a1c8c0" stroke-width="1.51"/><path d="M-807,1371L-472,2015L63,1172Z" fill="#92b2b6" stroke="#92b2b6" stroke-width="1.51"/><path d="M1997,-87L2101,-1250L1386,-957Z" fill="#9ccabb" stroke="#9ccabb" stroke-width="1.51"/><path d="M2136,223L2809,101L1997,-87Z" fill="#64abbb" stroke="#64abbb" stroke-width="1.51"/><path d="M2427,1212L2809,101L2136,223Z" fill="#469dbc" stroke="#469dbc" stroke-width="1.51"/><path d="M1386,-957L2101,-1250L674,-1154Z" fill="#aad9c3" stroke="#aad9c3" stroke-width="1.51"/><path d="M2405,-1096L2101,-1250L1997,-87Z" fill="#99c1bb" stroke="#99c1bb" stroke-width="1.51"/><path d="M760,2789L1914,2360L952,1738Z" fill="#4979ac" stroke="#4979ac" stroke-width="1.51"/><path d="M-880,1475L-472,2015L-807,1371Z" fill="#9ab0b3" stroke="#9ab0b3" stroke-width="1.51"/><path d="M3227,1166L3172,0L2809,101Z" fill="#4e89b2" stroke="#4e89b2" stroke-width="1.51"/><path d="M1839,1773L2307,1771L1897,1298Z" fill="#2783b9" stroke="#2783b9" stroke-width="1.51"/><path d="M1914,2360L2307,1771L1839,1773Z" fill="#2b74b2" stroke="#2b74b2" stroke-width="1.51"/><path d="M2809,101L2659,-664L1997,-87Z" fill="#7bacb7" stroke="#7bacb7" stroke-width="1.51"/><path d="M2659,-664L2405,-1096L1997,-87Z" fill="#90b7b8" stroke="#90b7b8" stroke-width="1.51"/><path d="M760,2789L952,1738L341,1872Z" fill="#5f86ad" stroke="#5f86ad" stroke-width="1.51"/><path d="M-472,2015L-46,2581L341,1872Z" fill="#8592aa" stroke="#8592aa" stroke-width="1.51"/><path d="M-1101,2352L-46,2581L-472,2015Z" fill="#928fa7" stroke="#928fa7" stroke-width="1.51"/><path d="M2809,101L3006,-692L2659,-664Z" fill="#86a3b1" stroke="#86a3b1" stroke-width="1.51"/><path d="M2659,-664L3006,-692L2405,-1096Z" fill="#96adb2" stroke="#96adb2" stroke-width="1.51"/><path d="M3227,1166L2809,101L2427,1212Z" fill="#3488b7" stroke="#3488b7" stroke-width="1.51"/><path d="M-623,-539L-1427,-735L-799,-81Z" fill="#e1f3b9" stroke="#e1f3b9" stroke-width="1.51"/><path d="M-189,-973L-1427,-735L-623,-539Z" fill="#e9f6b2" stroke="#e9f6b2" stroke-width="1.51"/><path d="M674,-1154L-1427,-735L-189,-973Z" fill="#e4f5b4" stroke="#e4f5b4" stroke-width="1.51"/><path d="M3172,0L3006,-692L2809,101Z" fill="#7999af" stroke="#7999af" stroke-width="1.51"/><path d="M239,2844L760,2789L341,1872Z" fill="#677e9e" stroke="#677e9e" stroke-width="1.51"/><path d="M-46,2581L239,2844L341,1872Z" fill="#7884a2" stroke="#7884a2" stroke-width="1.51"/><path d="M3286,1645L2427,1212L2307,1771Z" fill="#2371b1" stroke="#2371b1" stroke-width="1.51"/><path d="M3286,1645L3227,1166L2427,1212Z" fill="#2570b1" stroke="#2570b1" stroke-width="1.51"/><path d="M-880,1475L-1101,2352L-472,2015Z" fill="#99a1af" stroke="#99a1af" stroke-width="1.51"/><path d="M-46,2581L-1101,2352L239,2844Z" fill="#828597" stroke="#828597" stroke-width="1.51"/><path d="M-1139,605L-1101,2352L-880,1475Z" fill="#9eb9be" stroke="#9eb9be" stroke-width="1.51"/><path d="M-1427,-735L-1101,2352L-1139,605Z" fill="#abd9c9" stroke="#abd9c9" stroke-width="1.51"/><path d="M1914,2360L2425,2604L2307,1771Z" fill="#2b64ab" stroke="#2b64ab" stroke-width="1.51"/><path d="M760,2789L2425,2604L1914,2360Z" fill="#31669d" stroke="#31669d" stroke-width="1.51"/><path d="M2425,2604L3286,1645L2307,1771Z" fill="#255da8" stroke="#255da8" stroke-width="1.51"/><path d="M3694,-1084L3006,-692L3172,0Z" fill="#8d96ab" stroke="#8d96ab" stroke-width="1.51"/><path d="M3006,-692L3280,-1267L2405,-1096Z" fill="#9aa7b4" stroke="#9aa7b4" stroke-width="1.51"/><path d="M2405,-1096L3280,-1267L2101,-1250Z" fill="#9eb4bf" stroke="#9eb4bf" stroke-width="1.51"/><path d="M3694,-1084L3280,-1267L3006,-692Z" fill="#9999ad" stroke="#9999ad" stroke-width="1.51"/><path d="M3694,-1084L3172,0L4268,-276Z" fill="#8488a2" stroke="#8488a2" stroke-width="1.51"/><path d="M4319,623L3172,0L3227,1166Z" fill="#4677ac" stroke="#4677ac" stroke-width="1.51"/><path d="M3286,1645L3972,1339L3227,1166Z" fill="#2a5fa9" stroke="#2a5fa9" stroke-width="1.51"/><path d="M4175,2051L3972,1339L3286,1645Z" fill="#234b97" stroke="#234b97" stroke-width="1.51"/><path d="M2425,2604L3512,2454L3286,1645Z" fill="#26489e" stroke="#26489e" stroke-width="1.51"/><path d="M4319,623L4268,-276L3172,0Z" fill="#5b799a" stroke="#5b799a" stroke-width="1.51"/><path d="M3972,1339L4319,623L3227,1166Z" fill="#2e64a0" stroke="#2e64a0" stroke-width="1.51"/><path d="M4175,2051L4319,623L3972,1339Z" fill="#1e5490" stroke="#1e5490" stroke-width="1.51"/><path d="M3512,2454L4175,2051L3286,1645Z" fill="#253f97" stroke="#253f97" stroke-width="1.51"/><path d="M3512,2454L4317,2677L4175,2051Z" fill="#1c2c80" stroke="#1c2c80" stroke-width="1.51"/><path d="M4175,2051L4317,2677L4319,623Z" fill="#173e82" stroke="#173e82" stroke-width="1.51"/><path d="M2425,2604L4317,2677L3512,2454Z" fill="#1f3489" stroke="#1f3489" stroke-width="1.51"/><path d="M760,2789L4317,2677L2425,2604Z" fill="#1f4e90" stroke="#1f4e90" stroke-width="1.51"/><path d="M239,2844L4317,2677L760,2789Z" fill="#296192" stroke="#296192" stroke-width="1.51"/></svg>